<?xml version="1.0" encoding="utf-8"?>
<!-- Generator: Adobe Illustrator 24.0.1, SVG Export Plug-In . SVG Version: 6.00 Build 0)  -->
<svg version="1.1" id="layer" xmlns="http://www.w3.org/2000/svg" xmlns:xlink="http://www.w3.org/1999/xlink" x="0px" y="0px"
	 viewBox="0 0 652 186" style="enable-background:new 0 0 652 186;" xml:space="preserve">
<style type="text/css">
	.st0{fill:#358CCB;}
</style>
<g>
	<path class="st0" d="M155.1,99.3c0,0-1.6,20.8,20.2,20.8h35.6l0,0c1.8,0,3.3,1.5,3.3,3.3s-1.5,3.3-3.3,3.3h-0.1h-36.1
		c0,0-26.8,1.4-26.8-27.4s26.8-27.4,26.8-27.4h36.2c1.8,0,3.3,1.5,3.3,3.3s-1.5,3.3-3.3,3.3h-35.6C153.4,78.5,155.1,99.3,155.1,99.3
		 M416.6,80.4c0.9-0.7,3.6-2,5.9-2h8.3h30.5c1.8,0,3.3-1.5,3.3-3.3s-1.5-3.3-3.3-3.3h-29c-4.3,0-6.8,0-10.8,0
		c-5.8,0-9.8,2.3-12.7,5.7c-2.8,3.3-3.5,7.5-3.5,9.7h7.4C413,83.5,415.3,81.5,416.6,80.4 M457.2,118.1c-0.9,0.7-3.6,2-5.9,2
		c-3.7,0-8.3,0-8.3,0h-34.1l0,0c-1.8,0-3.3,1.5-3.3,3.3s1.5,3.3,3.3,3.3h0.3h32.3c4.3,0,6.8,0,10.8,0c5.8,0,9.8-2.3,12.7-5.7
		c2.8-3.3,3.5-7.5,3.5-9.7h-7.4C460.9,115,458.6,117.1,457.2,118.1 M452.2,96c-4,0-6.5,0-10.8,0H441l0,0h-18.5c-2.3,0-4.9-1.3-5.9-2
		c-1.4-1-3.7-3.1-3.7-6.8h-7.4c0,2.2,0.7,6.4,3.5,9.7c2.9,3.3,6.9,5.7,12.7,5.7c4,0,6.5,0,10.8,0h0.4l0,0h18.5c2.3,0,4.9,1.3,5.9,2
		c1.4,1,3.7,3.1,3.7,6.8h7.4c0-2.2-0.7-6.4-3.5-9.7C462,98.3,457.9,96,452.2,96 M617.2,120.1h-44.9V75.2c0-1.8-1.5-3.3-3.3-3.3
		s-3.3,1.5-3.3,3.3l0,0v51.4h51.5l0,0c1.8,0,3.3-1.5,3.3-3.3C620.5,121.5,619.1,120.1,617.2,120.1 M388.7,71.9c-1,0-1.8,0.4-2.4,1.1
		l0,0l-34.9,34.9l-35.2-35.2l0,0c-0.6-0.5-1.3-0.8-2.1-0.8c-1.8,0-3.3,1.5-3.3,3.3v51.4h6.6V83.1l31.8,31.8l0.4,0.3l0.3,0.2l0.3,0.1
		l0.2,0.1c1,0.4,1.8,0.2,2.4,0h0.1l0.5-0.2l0.1-0.1l0.5-0.4l0,0l31.7-31.7v43.5h6.6V75.3C392,73.4,390.5,71.9,388.7,71.9
		 M299.4,99.3c0,28.8-26.8,27.4-26.8,27.4h-22.4c0,0-26.8,1.4-26.8-27.4s26.8-27.4,26.8-27.4h22.4C272.6,71.9,299.4,70.5,299.4,99.3
		 M272.1,78.5h-21.3c-21.8,0-20.2,20.8-20.2,20.8s-1.6,20.8,20.2,20.8h21.3c21.8,0,20.2-20.8,20.2-20.8S293.9,78.5,272.1,78.5
		 M553.8,99.3c0,28.8-26.8,27.4-26.8,27.4h-22.4c0,0-26.8,1.4-26.8-27.4s26.8-27.4,26.8-27.4H527C527,71.9,553.8,70.5,553.8,99.3
		 M526.4,78.5h-21.3c-21.8,0-20.2,20.8-20.2,20.8s-1.6,20.8,20.2,20.8h21.3c21.8,0,20.2-20.8,20.2-20.8S548.2,78.5,526.4,78.5
		 M121.5,79.9c0-4.4-3.6-8-8-8H82.7c-4.4,0-8,3.6-8,8v38.8c0,4.4,3.6,8,8,8h30.8c4.4,0,8-3.6,8-8V79.9z M59.3,71.9H28.5
		c-4.4,0-8,3.6-8,8l0,0c0,1.9,0.7,3.6,1.8,5V85l30.8,38.8h0.1c1.5,1.7,3.6,2.9,6.1,2.9l0,0c4.4,0,8-3.6,8-8V79.9
		C67.3,75.5,63.7,71.9,59.3,71.9"/>
</g>
</svg>
