<svg id="layer" xmlns="http://www.w3.org/2000/svg" viewBox="0 0 652 186"><title>comsol</title><path d="M155.1,99.3s-1.6,20.8,20.2,20.8h35.6a3.3,3.3,0,0,1,0,6.6H174.7s-26.8,1.4-26.8-27.4,26.8-27.4,26.8-27.4h36.2a3.3,3.3,0,0,1,0,6.6H175.3c-21.9,0-20.2,20.8-20.2,20.8M416.6,80.4a11.64,11.64,0,0,1,5.9-2h38.8a3.3,3.3,0,1,0,0-6.6H421.5a15.54,15.54,0,0,0-16.2,15.4h7.4a9.64,9.64,0,0,1,3.9-6.8m40.6,37.7a11.64,11.64,0,0,1-5.9,2H408.9a3.3,3.3,0,1,0,0,6.6h43.4a15.54,15.54,0,0,0,16.2-15.4h-7.4a8.82,8.82,0,0,1-3.9,6.8m-5-22.1H422.5a12,12,0,0,1-5.9-2,8.21,8.21,0,0,1-3.7-6.8h-7.4a15.8,15.8,0,0,0,3.5,9.7,16.11,16.11,0,0,0,12.7,5.7h29.7a12,12,0,0,1,5.9,2,8.21,8.21,0,0,1,3.7,6.8h7.4A15.54,15.54,0,0,0,452.2,96m165,24.1H572.3V75.2a3.3,3.3,0,1,0-6.6,0h0v51.4h51.5a3.33,3.33,0,0,0,3.3-3.3,3.18,3.18,0,0,0-3.3-3.2M388.7,71.9a3,3,0,0,0-2.4,1.1h0l-34.9,34.9L316.2,72.7h0a3.23,3.23,0,0,0-2.1-.8,3.33,3.33,0,0,0-3.3,3.3v51.4h6.6V83.1l31.8,31.8.4.3.3.2.3.1.2.1a3.27,3.27,0,0,0,2.4,0h.1l.5-.2.1-.1.5-.4h0l31.7-31.7v43.5h6.6V75.3a3.84,3.84,0,0,0-3.6-3.4M299.4,99.3c0,28.8-26.8,27.4-26.8,27.4H250.2s-26.8,1.4-26.8-27.4,26.8-27.4,26.8-27.4h22.4s26.8-1.4,26.8,27.4M272.1,78.5H250.8c-21.8,0-20.2,20.8-20.2,20.8s-1.6,20.8,20.2,20.8h21.3c21.8,0,20.2-20.8,20.2-20.8s1.6-20.8-20.2-20.8M553.8,99.3c0,28.8-26.8,27.4-26.8,27.4H504.6s-26.8,1.4-26.8-27.4,26.8-27.4,26.8-27.4H527s26.8-1.4,26.8,27.4M526.4,78.5H505.1c-21.8,0-20.2,20.8-20.2,20.8s-1.6,20.8,20.2,20.8h21.3c21.8,0,20.2-20.8,20.2-20.8s1.6-20.8-20.2-20.8M121.5,79.9a8,8,0,0,0-8-8H82.7a8,8,0,0,0-8,8v38.8a8,8,0,0,0,8,8h30.8a8,8,0,0,0,8-8Zm-62.2-8H28.5a8,8,0,0,0-8,8h0a8,8,0,0,0,1.8,5V85l30.8,38.8h.1a8.11,8.11,0,0,0,6.1,2.9h0a8,8,0,0,0,8-8V79.9a8,8,0,0,0-8-8" fill="#358ccb"/></svg>